<svg xmlns="http://www.w3.org/2000/svg" width="862" height="360" viewBox="0 0 862 360" role="img" aria-label="Trace — XRK to CSV for RaceChrono">
  <!-- Dark background (light text). Text is outlined to vector paths (SF Pro Heavy + Menlo) — no font dependency. -->
  <defs>
    <linearGradient id="wbg" x1="512" y1="100" x2="512" y2="924" gradientUnits="userSpaceOnUse">
      <stop offset="0" stop-color="#272C34"/><stop offset="0.55" stop-color="#14181D"/><stop offset="1" stop-color="#090B0E"/>
    </linearGradient>
    <linearGradient id="wtr" x1="175" y1="812" x2="858" y2="238" gradientUnits="userSpaceOnUse">
      <stop offset="0" stop-color="#FFC24A"/><stop offset="0.5" stop-color="#FF7A1A"/><stop offset="1" stop-color="#FF3D2E"/>
    </linearGradient>
    <radialGradient id="wdot" cx="470" cy="812" r="60" gradientUnits="userSpaceOnUse">
      <stop offset="0" stop-color="#FFFFFF"/><stop offset="0.55" stop-color="#FFE9C2"/><stop offset="1" stop-color="#FFB84D"/>
    </radialGradient>
    <clipPath id="wsq"><rect x="100" y="100" width="824" height="824" rx="190" ry="190"/></clipPath>
  </defs>
  <g transform="translate(3.45,18.45) scale(0.3155)">
    <rect x="100" y="100" width="824" height="824" rx="190" ry="190" fill="url(#wbg)"/>
    <g clip-path="url(#wsq)">
      <path d="M 157,554 C 232,699 337,766 452,766 C 587,766 682,499 840,192" fill="none" stroke="#8FA6C0" stroke-opacity="0.28" stroke-width="30" stroke-linecap="round" stroke-linejoin="round"/>
      <path d="M 175,600 C 250,745 355,812 470,812 C 605,812 700,545 858,238" fill="none" stroke="url(#wtr)" stroke-width="82" stroke-linecap="round" stroke-linejoin="round"/>
      <circle cx="470" cy="812" r="36" fill="url(#wdot)"/>
      <circle cx="470" cy="812" r="36" fill="none" stroke="#FFFFFF" stroke-opacity="0.9" stroke-width="4"/>
    </g>
    <rect x="101.5" y="101.5" width="821" height="821" rx="188.5" ry="188.5" fill="none" stroke="#FFFFFF" stroke-opacity="0.10" stroke-width="3"/>
  </g>
  <path transform="translate(336.0,206.0)" d="M32.5 -0.0L32.5 -84.1L3.4 -84.1L3.4 -105.7L88.5 -105.7L88.5 -84.1L59.4 -84.1L59.4 -0.0ZM89.0 -0.0L89.0 -79.8L114.9 -79.8L114.9 -65.6L115.5 -65.6Q117.1 -73.2 121.7 -77.3Q126.3 -81.5 133.4 -81.5Q135.2 -81.5 136.9 -81.2Q138.7 -80.9 140.1 -80.4L140.1 -58.2Q138.5 -58.9 136.3 -59.3Q134.2 -59.6 131.8 -59.6Q126.4 -59.6 122.6 -57.7Q118.8 -55.7 116.9 -51.8Q114.9 -48.0 114.9 -42.3L114.9 -0.0ZM166.9 1.1Q158.9 1.1 152.8 -2.0Q146.7 -5.1 143.3 -10.6Q139.9 -16.1 139.9 -23.0L139.9 -23.1Q139.9 -30.6 143.7 -35.9Q147.5 -41.1 154.6 -44.2Q161.8 -47.2 172.1 -47.9L204.0 -50.0L204.0 -34.8L176.2 -33.0Q170.8 -32.6 168.1 -30.5Q165.4 -28.3 165.4 -24.8L165.4 -24.7Q165.4 -21.0 168.3 -18.9Q171.2 -16.9 176.0 -16.9Q180.1 -16.9 183.3 -18.4Q186.5 -19.9 188.4 -22.6Q190.2 -25.2 190.2 -28.5L190.2 -53.0Q190.2 -57.4 187.4 -59.9Q184.7 -62.4 179.3 -62.4Q174.0 -62.4 171.0 -60.3Q168.0 -58.2 167.4 -55.1L167.2 -54.4L143.8 -54.4L143.9 -55.3Q144.5 -63.1 149.0 -69.0Q153.5 -74.9 161.5 -78.2Q169.5 -81.5 180.6 -81.5Q191.4 -81.5 199.4 -78.1Q207.3 -74.7 211.8 -68.6Q216.2 -62.5 216.2 -54.5L216.2 -0.0L190.2 -0.0L190.2 -11.3L189.7 -11.3Q187.4 -7.4 184.1 -4.6Q180.7 -1.8 176.4 -0.3Q172.1 1.1 166.9 1.1ZM263.8 1.7Q251.2 1.7 242.1 -3.3Q233.0 -8.3 228.1 -17.7Q223.2 -27.0 223.2 -40.0L223.2 -40.0Q223.2 -52.9 228.1 -62.2Q233.0 -71.5 242.1 -76.5Q251.2 -81.5 263.6 -81.5Q274.8 -81.5 283.2 -77.3Q291.6 -73.2 296.4 -65.8Q301.1 -58.5 301.2 -49.0L301.3 -48.5L277.4 -48.5L277.3 -49.2Q276.6 -54.7 273.1 -58.2Q269.7 -61.8 264.0 -61.8Q259.5 -61.8 256.3 -59.2Q253.0 -56.6 251.3 -51.7Q249.6 -46.8 249.6 -39.9L249.6 -39.9Q249.6 -32.9 251.3 -28.0Q253.0 -23.1 256.2 -20.5Q259.5 -18.0 264.0 -18.0Q269.7 -18.0 273.2 -21.4Q276.6 -24.8 277.3 -30.6L277.4 -31.3L301.3 -31.3L301.3 -30.8Q301.0 -21.5 296.5 -14.2Q291.9 -6.9 283.6 -2.6Q275.3 1.7 263.8 1.7ZM345.9 1.7Q333.3 1.7 324.2 -3.3Q315.2 -8.3 310.3 -17.6Q305.4 -27.0 305.4 -39.8L305.4 -39.9Q305.4 -52.7 310.2 -62.1Q315.1 -71.4 324.0 -76.4Q332.9 -81.5 345.0 -81.5Q357.1 -81.5 365.9 -76.5Q374.8 -71.6 379.6 -62.6Q384.5 -53.6 384.5 -41.5L384.5 -33.9L318.1 -33.9L318.1 -49.3L372.3 -49.3L360.2 -34.9L360.2 -44.9Q360.2 -50.7 358.4 -54.8Q356.6 -58.8 353.3 -60.9Q350.0 -63.0 345.6 -63.0Q341.2 -63.0 337.9 -60.9Q334.6 -58.7 332.7 -54.7Q330.8 -50.6 330.8 -44.9L330.8 -34.8Q330.8 -29.1 332.7 -25.1Q334.6 -21.1 338.1 -18.9Q341.6 -16.8 346.4 -16.8Q350.6 -16.8 353.5 -18.1Q356.4 -19.4 358.2 -21.3Q359.9 -23.2 360.4 -24.9L360.6 -25.2L384.0 -25.2L383.8 -24.3Q382.9 -20.2 380.4 -15.6Q377.9 -11.1 373.5 -7.2Q369.0 -3.2 362.2 -0.8Q355.4 1.7 345.9 1.7Z" fill="#F2F4F7"/>
  <path transform="translate(340.0,256.0)" d="M17.7 -0.0L13.2 -0.0L9.0 -7.2L4.9 -0.0L0.4 -0.0L6.8 -11.1L0.6 -21.9L5.0 -21.9L9.0 -14.9L13.0 -21.9L17.5 -21.9L11.3 -11.1ZM30.4 -10.3Q31.0 -10.2 31.5 -9.7Q32.0 -9.2 32.7 -7.9L36.6 -0.0L31.9 -0.0L29.2 -5.5Q29.1 -5.8 28.9 -6.2Q27.8 -8.6 26.2 -8.6L24.8 -8.6L24.8 -0.0L20.5 -0.0L20.5 -21.9L26.8 -21.9Q31.0 -21.9 32.8 -20.4Q34.6 -18.9 34.6 -15.5Q34.6 -13.3 33.5 -11.9Q32.4 -10.6 30.4 -10.3ZM24.8 -18.2L24.8 -12.3L26.9 -12.3Q28.6 -12.3 29.4 -13.0Q30.2 -13.7 30.2 -15.3Q30.2 -16.9 29.4 -17.5Q28.7 -18.2 26.9 -18.2ZM38.8 -21.9L43.2 -21.9L43.2 -13.2L49.9 -21.9L54.8 -21.9L47.9 -13.3L55.1 -0.0L50.3 -0.0L45.1 -9.8L43.2 -7.4L43.2 -0.0L38.8 -0.0ZM91.3 -7.2L87.1 -2.9L85.3 -4.7L87.2 -6.6L75.2 -6.6L75.2 -9.9L87.2 -9.9L85.3 -11.8L87.1 -13.5L91.3 -9.3ZM127.2 -0.6Q126.2 -0.1 125.1 0.2Q123.9 0.4 122.7 0.4Q118.3 0.4 115.9 -2.5Q113.6 -5.4 113.6 -10.9Q113.6 -16.4 115.9 -19.4Q118.3 -22.3 122.7 -22.3Q123.9 -22.3 125.1 -22.0Q126.2 -21.7 127.2 -21.2L127.2 -16.4Q126.1 -17.4 125.0 -17.9Q124.0 -18.4 122.9 -18.4Q120.5 -18.4 119.3 -16.5Q118.1 -14.6 118.1 -10.9Q118.1 -7.2 119.3 -5.3Q120.5 -3.5 122.9 -3.5Q124.0 -3.5 125.0 -3.9Q126.1 -4.4 127.2 -5.4ZM137.4 -9.6Q134.1 -10.8 133.0 -12.2Q131.8 -13.6 131.8 -15.9Q131.8 -18.9 133.7 -20.6Q135.6 -22.3 139.0 -22.3Q140.5 -22.3 142.0 -21.9Q143.5 -21.6 145.0 -20.9L145.0 -16.7Q143.6 -17.7 142.1 -18.2Q140.7 -18.7 139.3 -18.7Q137.7 -18.7 136.9 -18.1Q136.1 -17.4 136.1 -16.3Q136.1 -15.4 136.7 -14.8Q137.3 -14.2 139.2 -13.4L141.1 -12.7Q143.7 -11.8 144.9 -10.2Q146.2 -8.6 146.2 -6.2Q146.2 -2.8 144.2 -1.2Q142.3 0.4 138.3 0.4Q136.7 0.4 135.1 0.0Q133.4 -0.4 131.9 -1.1L131.9 -5.6Q133.6 -4.4 135.3 -3.8Q136.9 -3.1 138.5 -3.1Q140.1 -3.1 140.9 -3.9Q141.8 -4.6 141.8 -5.9Q141.8 -6.9 141.2 -7.6Q140.6 -8.4 139.5 -8.8ZM157.5 -3.6L161.4 -21.9L165.7 -21.9L160.5 -0.0L154.5 -0.0L149.3 -21.9L153.7 -21.9ZM192.2 -13.1L197.1 -13.1L197.1 -7.8L192.2 -7.8ZM233.6 -17.8L233.6 -16.4L238.6 -16.4L238.6 -13.1L233.6 -13.1L233.6 -0.0L229.3 -0.0L229.3 -13.1L225.3 -13.1L225.3 -16.4L229.3 -16.4L229.3 -17.5Q229.3 -20.5 230.5 -21.7Q231.7 -22.8 235.1 -22.8L238.6 -22.8L238.6 -19.5L235.2 -19.5Q234.3 -19.5 233.9 -19.1Q233.6 -18.8 233.6 -17.8ZM250.3 -13.3Q248.8 -13.3 247.9 -12.0Q247.0 -10.6 247.0 -8.2Q247.0 -5.8 247.9 -4.4Q248.8 -3.1 250.3 -3.1Q251.9 -3.1 252.8 -4.4Q253.6 -5.8 253.6 -8.2Q253.6 -10.6 252.8 -12.0Q251.9 -13.3 250.3 -13.3ZM242.7 -8.2Q242.7 -12.2 244.8 -14.5Q246.9 -16.8 250.3 -16.8Q253.8 -16.8 255.9 -14.5Q257.9 -12.2 257.9 -8.2Q257.9 -4.2 255.9 -1.9Q253.8 0.4 250.3 0.4Q246.9 0.4 244.8 -1.9Q242.7 -4.2 242.7 -8.2ZM276.7 -11.9Q276.0 -12.5 275.1 -12.8Q274.1 -13.2 273.0 -13.2Q271.6 -13.2 270.6 -12.7Q269.6 -12.2 269.0 -11.3Q268.7 -10.8 268.6 -10.0Q268.4 -9.2 268.4 -7.6L268.4 -0.0L264.1 -0.0L264.1 -16.4L268.4 -16.4L268.4 -13.9Q269.0 -15.3 270.3 -16.0Q271.7 -16.8 273.4 -16.8Q274.3 -16.8 275.1 -16.6Q276.0 -16.4 276.7 -16.0ZM308.8 -10.3Q309.5 -10.2 309.9 -9.7Q310.4 -9.2 311.1 -7.9L315.0 -0.0L310.3 -0.0L307.7 -5.5Q307.5 -5.8 307.4 -6.2Q306.2 -8.6 304.6 -8.6L303.3 -8.6L303.3 -0.0L298.9 -0.0L298.9 -21.9L305.2 -21.9Q309.4 -21.9 311.2 -20.4Q313.1 -18.9 313.1 -15.5Q313.1 -13.3 312.0 -11.9Q310.9 -10.6 308.8 -10.3ZM303.3 -18.2L303.3 -12.3L305.3 -12.3Q307.1 -12.3 307.8 -13.0Q308.6 -13.7 308.6 -15.3Q308.6 -16.9 307.8 -17.5Q307.1 -18.2 305.3 -18.2ZM325.8 -7.7Q323.4 -7.7 322.4 -7.1Q321.5 -6.5 321.5 -5.0Q321.5 -3.9 322.2 -3.2Q322.8 -2.5 323.9 -2.5Q325.6 -2.5 326.6 -3.8Q327.5 -5.1 327.5 -7.4L327.5 -7.7ZM331.8 -9.4L331.8 -0.0L327.5 -0.0L327.5 -1.8Q326.7 -0.7 325.5 -0.2Q324.3 0.4 322.8 0.4Q320.0 0.4 318.5 -1.1Q316.9 -2.5 316.9 -5.2Q316.9 -8.1 318.8 -9.4Q320.6 -10.8 324.5 -10.8L327.5 -10.8L327.5 -11.5Q327.5 -12.6 326.8 -13.1Q326.0 -13.6 324.5 -13.6Q323.0 -13.6 321.6 -13.2Q320.1 -12.8 318.5 -12.0L318.5 -15.7Q320.0 -16.2 321.4 -16.5Q322.9 -16.8 324.5 -16.8Q328.5 -16.8 330.2 -15.2Q331.8 -13.5 331.8 -9.4ZM349.6 -0.8Q348.6 -0.2 347.3 0.1Q346.1 0.4 344.6 0.4Q340.8 0.4 338.7 -1.9Q336.6 -4.1 336.6 -8.2Q336.6 -12.2 338.7 -14.5Q340.9 -16.8 344.7 -16.8Q346.0 -16.8 347.2 -16.5Q348.4 -16.2 349.6 -15.6L349.6 -11.6Q348.7 -12.5 347.6 -12.9Q346.5 -13.3 345.3 -13.3Q343.2 -13.3 342.0 -12.0Q340.9 -10.6 340.9 -8.2Q340.9 -5.7 342.0 -4.4Q343.2 -3.1 345.3 -3.1Q346.5 -3.1 347.6 -3.5Q348.7 -3.9 349.6 -4.8ZM368.8 -0.8Q367.3 -0.2 365.8 0.1Q364.2 0.4 362.5 0.4Q358.4 0.4 356.2 -1.8Q354.0 -4.0 354.0 -8.1Q354.0 -12.1 356.1 -14.5Q358.2 -16.8 361.8 -16.8Q365.5 -16.8 367.5 -14.6Q369.5 -12.5 369.5 -8.6L369.5 -6.8L358.4 -6.8Q358.4 -4.9 359.5 -3.9Q360.7 -3.0 362.9 -3.0Q364.4 -3.0 365.8 -3.4Q367.2 -3.8 368.8 -4.7ZM365.2 -10.0Q365.1 -11.7 364.3 -12.6Q363.5 -13.5 361.8 -13.5Q360.3 -13.5 359.5 -12.6Q358.6 -11.7 358.4 -10.0ZM387.1 -0.6Q386.0 -0.1 384.9 0.2Q383.8 0.4 382.5 0.4Q378.1 0.4 375.8 -2.5Q373.5 -5.4 373.5 -10.9Q373.5 -16.4 375.8 -19.4Q378.1 -22.3 382.5 -22.3Q383.8 -22.3 384.9 -22.0Q386.1 -21.7 387.1 -21.2L387.1 -16.4Q386.0 -17.4 384.9 -17.9Q383.9 -18.4 382.7 -18.4Q380.4 -18.4 379.2 -16.5Q378.0 -14.6 378.0 -10.9Q378.0 -7.2 379.2 -5.3Q380.4 -3.5 382.7 -3.5Q383.9 -3.5 384.9 -3.9Q386.0 -4.4 387.1 -5.4ZM405.5 -10.6L405.5 -0.0L401.2 -0.0L401.2 -10.0Q401.2 -11.8 400.7 -12.5Q400.2 -13.3 399.1 -13.3Q397.9 -13.3 397.2 -12.3Q396.6 -11.2 396.6 -9.4L396.6 -0.0L392.3 -0.0L392.3 -22.8L396.6 -22.8L396.6 -13.9Q397.0 -15.3 398.1 -16.1Q399.2 -16.8 400.8 -16.8Q403.1 -16.8 404.3 -15.3Q405.5 -13.7 405.5 -10.6ZM425.2 -11.9Q424.5 -12.5 423.6 -12.8Q422.6 -13.2 421.5 -13.2Q420.1 -13.2 419.1 -12.7Q418.1 -12.2 417.5 -11.3Q417.2 -10.8 417.0 -10.0Q416.9 -9.2 416.9 -7.6L416.9 -0.0L412.6 -0.0L412.6 -16.4L416.9 -16.4L416.9 -13.9Q417.5 -15.3 418.8 -16.0Q420.1 -16.8 421.9 -16.8Q422.8 -16.8 423.6 -16.6Q424.5 -16.4 425.2 -16.0ZM435.9 -13.3Q434.4 -13.3 433.5 -12.0Q432.6 -10.6 432.6 -8.2Q432.6 -5.8 433.5 -4.4Q434.4 -3.1 435.9 -3.1Q437.5 -3.1 438.4 -4.4Q439.2 -5.8 439.2 -8.2Q439.2 -10.6 438.4 -12.0Q437.5 -13.3 435.9 -13.3ZM428.4 -8.2Q428.4 -12.2 430.4 -14.5Q432.5 -16.8 435.9 -16.8Q439.4 -16.8 441.5 -14.5Q443.5 -12.2 443.5 -8.2Q443.5 -4.2 441.5 -1.9Q439.4 0.4 435.9 0.4Q432.5 0.4 430.4 -1.9Q428.4 -4.2 428.4 -8.2ZM461.2 -10.6L461.2 -0.0L456.9 -0.0L456.9 -10.0Q456.9 -11.8 456.4 -12.5Q455.9 -13.3 454.7 -13.3Q453.6 -13.3 452.9 -12.3Q452.3 -11.2 452.3 -9.4L452.3 -0.0L448.0 -0.0L448.0 -16.4L452.3 -16.4L452.3 -13.9Q452.7 -15.3 453.8 -16.1Q454.9 -16.8 456.5 -16.8Q458.8 -16.8 460.0 -15.3Q461.2 -13.7 461.2 -10.6ZM473.1 -13.3Q471.5 -13.3 470.6 -12.0Q469.8 -10.6 469.8 -8.2Q469.8 -5.8 470.6 -4.4Q471.5 -3.1 473.1 -3.1Q474.6 -3.1 475.5 -4.4Q476.4 -5.8 476.4 -8.2Q476.4 -10.6 475.5 -12.0Q474.6 -13.3 473.1 -13.3ZM465.5 -8.2Q465.5 -12.2 467.5 -14.5Q469.6 -16.8 473.1 -16.8Q476.5 -16.8 478.6 -14.5Q480.7 -12.2 480.7 -8.2Q480.7 -4.2 478.6 -1.9Q476.5 0.4 473.1 0.4Q469.6 0.4 467.5 -1.9Q465.5 -4.2 465.5 -8.2Z" fill="#9AA6B2"/>
</svg>
